<svg width="725" height="543" viewBox="0 0 725 543" fill="none" xmlns="http://www.w3.org/2000/svg">
<foreignObject x="-37.7002" y="-41.7002" width="800" height="618"><div xmlns="http://www.w3.org/1999/xhtml" style="backdrop-filter:blur(25px);clip-path:url(#bgblur_0_100_313_clip_path);height:100%;width:100%"></div></foreignObject><g filter="url(#filter0_d_100_313)" data-figma-bg-blur-radius="50">
<mask id="path-1-inside-1_100_313" fill="white">
<path d="M215.3 18.2998H509.3L519.3 8.2998H694.3L712.3 26.2998V508.188L694.188 526.3H519.3L509.3 516.3H215.3L205.3 526.3H30.4111L12.2998 508.188V26.4111L30.4111 8.2998H205.3L215.3 18.2998Z"/>
</mask>
<path d="M215.3 18.2998H509.3L519.3 8.2998H694.3L712.3 26.2998V508.188L694.188 526.3H519.3L509.3 516.3H215.3L205.3 526.3H30.4111L12.2998 508.188V26.4111L30.4111 8.2998H205.3L215.3 18.2998Z" fill="url(#paint0_radial_100_313)" shape-rendering="crispEdges"/>
<path d="M215.3 18.2998L214.593 19.0069L214.886 19.2998H215.3V18.2998ZM509.3 18.2998V19.2998H509.714L510.007 19.0069L509.3 18.2998ZM519.3 8.2998V7.2998H518.886L518.593 7.5927L519.3 8.2998ZM694.3 8.2998L695.007 7.5927L694.714 7.2998H694.3V8.2998ZM712.3 26.2998H713.3V25.8856L713.007 25.5927L712.3 26.2998ZM712.3 508.188L713.007 508.896L713.3 508.603V508.188H712.3ZM694.188 526.3V527.3H694.603L694.896 527.007L694.188 526.3ZM519.3 526.3L518.593 527.007L518.886 527.3H519.3V526.3ZM509.3 516.3L510.007 515.593L509.714 515.3H509.3V516.3ZM215.3 516.3V515.3H214.886L214.593 515.593L215.3 516.3ZM205.3 526.3V527.3H205.714L206.007 527.007L205.3 526.3ZM30.4111 526.3L29.704 527.007L29.9969 527.3H30.4111V526.3ZM12.2998 508.188H11.2998V508.603L11.5927 508.896L12.2998 508.188ZM12.2998 26.4111L11.5927 25.704L11.2998 25.9969V26.4111H12.2998ZM30.4111 8.2998V7.2998H29.9969L29.704 7.5927L30.4111 8.2998ZM205.3 8.2998L206.007 7.5927L205.714 7.2998H205.3V8.2998ZM215.3 18.2998V19.2998H509.3V18.2998V17.2998H215.3V18.2998ZM509.3 18.2998L510.007 19.0069L520.007 9.00691L519.3 8.2998L518.593 7.5927L508.593 17.5927L509.3 18.2998ZM519.3 8.2998V9.2998H694.3V8.2998V7.2998H519.3V8.2998ZM694.3 8.2998L693.593 9.00691L711.593 27.0069L712.3 26.2998L713.007 25.5927L695.007 7.5927L694.3 8.2998ZM712.3 26.2998H711.3V508.188H712.3H713.3V26.2998H712.3ZM712.3 508.188L711.593 507.481L693.481 525.593L694.188 526.3L694.896 527.007L713.007 508.896L712.3 508.188ZM694.188 526.3V525.3H519.3V526.3V527.3H694.188V526.3ZM519.3 526.3L520.007 525.593L510.007 515.593L509.3 516.3L508.593 517.007L518.593 527.007L519.3 526.3ZM509.3 516.3V515.3H215.3V516.3V517.3H509.3V516.3ZM215.3 516.3L214.593 515.593L204.593 525.593L205.3 526.3L206.007 527.007L216.007 517.007L215.3 516.3ZM205.3 526.3V525.3H30.4111V526.3V527.3H205.3V526.3ZM30.4111 526.3L31.1182 525.593L13.0069 507.481L12.2998 508.188L11.5927 508.896L29.704 527.007L30.4111 526.3ZM12.2998 508.188H13.2998V26.4111H12.2998H11.2998V508.188H12.2998ZM12.2998 26.4111L13.0069 27.1182L31.1182 9.00691L30.4111 8.2998L29.704 7.5927L11.5927 25.704L12.2998 26.4111ZM30.4111 8.2998V9.2998H205.3V8.2998V7.2998H30.4111V8.2998ZM205.3 8.2998L204.593 9.00691L214.593 19.0069L215.3 18.2998L216.007 17.5927L206.007 7.5927L205.3 8.2998Z" fill="url(#paint1_linear_100_313)" mask="url(#path-1-inside-1_100_313)"/>
</g>
<path d="M19.2998 44.7998V33.2998L36.2998 50.2998V61.7998L19.2998 44.7998Z" fill="url(#paint2_linear_100_313)"/>
<path d="M19.2998 73.2998V61.7998L36.2998 78.7998V90.2998L19.2998 73.2998Z" fill="url(#paint3_linear_100_313)"/>
<path d="M19.2998 101.8V90.2998L36.2998 107.3V118.8L19.2998 101.8Z" fill="url(#paint4_linear_100_313)"/>
<path d="M19.2998 130.3V118.8L36.2998 135.8V147.3L19.2998 130.3Z" fill="url(#paint5_linear_100_313)"/>
<path d="M19.2998 158.8V147.3L36.2998 164.3V175.8L19.2998 158.8Z" fill="url(#paint6_linear_100_313)"/>
<path d="M19.2998 187.3V175.8L36.2998 192.8V204.3L19.2998 187.3Z" fill="url(#paint7_linear_100_313)"/>
<path d="M19.2998 215.8V204.3L36.2998 221.3V232.8L19.2998 215.8Z" fill="url(#paint8_linear_100_313)"/>
<path d="M19.2998 244.3V232.8L36.2998 249.8V261.3L19.2998 244.3Z" fill="url(#paint9_linear_100_313)"/>
<path d="M19.2998 272.8V261.3L36.2998 278.3V289.8L19.2998 272.8Z" fill="url(#paint10_linear_100_313)"/>
<path d="M19.2998 301.3V289.8L36.2998 306.8V318.3L19.2998 301.3Z" fill="url(#paint11_linear_100_313)"/>
<path d="M19.2998 329.8V318.3L36.2998 335.3V346.8L19.2998 329.8Z" fill="url(#paint12_linear_100_313)"/>
<path d="M19.2998 358.3V346.8L36.2998 363.8V375.3L19.2998 358.3Z" fill="url(#paint13_linear_100_313)"/>
<path d="M19.2998 386.8V375.3L36.2998 392.3V403.8L19.2998 386.8Z" fill="url(#paint14_linear_100_313)"/>
<path d="M19.2998 415.3V403.8L36.2998 420.8V432.3L19.2998 415.3Z" fill="url(#paint15_linear_100_313)"/>
<path d="M19.2998 443.8V432.3L36.2998 449.3V460.8L19.2998 443.8Z" fill="url(#paint16_linear_100_313)"/>
<path d="M19.2998 472.3V460.8L36.2998 477.8V489.3L19.2998 472.3Z" fill="url(#paint17_linear_100_313)"/>
<path d="M19.2998 500.8V489.3L36.2998 506.3V517.8L19.2998 500.8Z" fill="url(#paint18_linear_100_313)"/>
<path d="M704.3 44.7998V33.2998L687.3 50.2998V61.7998L704.3 44.7998Z" fill="url(#paint19_linear_100_313)"/>
<path d="M704.3 73.2998V61.7998L687.3 78.7998V90.2998L704.3 73.2998Z" fill="url(#paint20_linear_100_313)"/>
<path d="M704.3 101.8V90.2998L687.3 107.3V118.8L704.3 101.8Z" fill="url(#paint21_linear_100_313)"/>
<path d="M704.3 130.3V118.8L687.3 135.8V147.3L704.3 130.3Z" fill="url(#paint22_linear_100_313)"/>
<path d="M704.3 158.8V147.3L687.3 164.3V175.8L704.3 158.8Z" fill="url(#paint23_linear_100_313)"/>
<path d="M704.3 187.3V175.8L687.3 192.8V204.3L704.3 187.3Z" fill="url(#paint24_linear_100_313)"/>
<path d="M704.3 215.8V204.3L687.3 221.3V232.8L704.3 215.8Z" fill="url(#paint25_linear_100_313)"/>
<path d="M704.3 244.3V232.8L687.3 249.8V261.3L704.3 244.3Z" fill="url(#paint26_linear_100_313)"/>
<path d="M704.3 272.8V261.3L687.3 278.3V289.8L704.3 272.8Z" fill="url(#paint27_linear_100_313)"/>
<path d="M704.3 301.3V289.8L687.3 306.8V318.3L704.3 301.3Z" fill="url(#paint28_linear_100_313)"/>
<path d="M704.3 329.8V318.3L687.3 335.3V346.8L704.3 329.8Z" fill="url(#paint29_linear_100_313)"/>
<path d="M704.3 358.3V346.8L687.3 363.8V375.3L704.3 358.3Z" fill="url(#paint30_linear_100_313)"/>
<path d="M704.3 386.8V375.3L687.3 392.3V403.8L704.3 386.8Z" fill="url(#paint31_linear_100_313)"/>
<path d="M704.3 415.3V403.8L687.3 420.8V432.3L704.3 415.3Z" fill="url(#paint32_linear_100_313)"/>
<path d="M704.3 443.8V432.3L687.3 449.3V460.8L704.3 443.8Z" fill="url(#paint33_linear_100_313)"/>
<path d="M704.3 472.3V460.8L687.3 477.8V489.3L704.3 472.3Z" fill="url(#paint34_linear_100_313)"/>
<path d="M704.3 500.8V489.3L687.3 506.3V517.8L704.3 500.8Z" fill="url(#paint35_linear_100_313)"/>
<path d="M212.1 19.2998L201.3 9.2998H208.5L219.3 19.2998H212.1Z" fill="#FF5F1D"/>
<path d="M509.5 19.2998L520.3 9.2998H513.1L502.3 19.2998H509.5Z" fill="#FF5F1D"/>
<path d="M509.5 516.3L520.3 526.3H513.1L502.3 516.3H509.5Z" fill="#4A1A08"/>
<path d="M212.1 516.3L201.3 526.3H208.5L219.3 516.3H212.1Z" fill="#4A1A08"/>
<defs>
<filter id="filter0_d_100_313" x="-37.7002" y="-41.7002" width="800" height="618" filterUnits="userSpaceOnUse" color-interpolation-filters="sRGB">
<feFlood flood-opacity="0" result="BackgroundImageFix"/>
<feColorMatrix in="SourceAlpha" type="matrix" values="0 0 0 0 0 0 0 0 0 0 0 0 0 0 0 0 0 0 127 0" result="hardAlpha"/>
<feOffset dy="4"/>
<feGaussianBlur stdDeviation="6.15"/>
<feComposite in2="hardAlpha" operator="out"/>
<feColorMatrix type="matrix" values="0 0 0 0 1 0 0 0 0 0.373 0 0 0 0 0.114 0 0 0 0.35 0"/>
<feBlend mode="normal" in2="BackgroundImageFix" result="effect1_dropShadow_100_313"/>
<feBlend mode="normal" in="SourceGraphic" in2="effect1_dropShadow_100_313" result="shape"/>
</filter>
<clipPath id="bgblur_0_100_313_clip_path" transform="translate(37.7002 41.7002)"><path d="M215.3 18.2998H509.3L519.3 8.2998H694.3L712.3 26.2998V508.188L694.188 526.3H519.3L509.3 516.3H215.3L205.3 526.3H30.4111L12.2998 508.188V26.4111L30.4111 8.2998H205.3L215.3 18.2998Z"/>
</clipPath><radialGradient id="paint0_radial_100_313" cx="0" cy="0" r="1" gradientUnits="userSpaceOnUse" gradientTransform="translate(362.3 267.3) rotate(90) scale(488 835.412)">
<stop stop-color="#FF5F1D" stop-opacity="0.05"/>
<stop offset="1" stop-color="#FF5F1D" stop-opacity="0.16"/>
</radialGradient>
<linearGradient id="paint1_linear_100_313" x1="362.3" y1="8.2998" x2="362.3" y2="526.3" gradientUnits="userSpaceOnUse">
<stop stop-color="#FF5F1D" stop-opacity="0.85"/>
<stop offset="1" stop-color="#9A3A0E" stop-opacity="0.44"/>
</linearGradient>
<linearGradient id="paint2_linear_100_313" x1="361.8" y1="33.2998" x2="361.8" y2="517.8" gradientUnits="userSpaceOnUse">
<stop stop-color="#FF5F1D"/>
<stop offset="1" stop-color="#9A3A0E"/>
</linearGradient>
<linearGradient id="paint3_linear_100_313" x1="361.8" y1="33.2998" x2="361.8" y2="517.8" gradientUnits="userSpaceOnUse">
<stop stop-color="#FF5F1D"/>
<stop offset="1" stop-color="#9A3A0E"/>
</linearGradient>
<linearGradient id="paint4_linear_100_313" x1="361.8" y1="33.2998" x2="361.8" y2="517.8" gradientUnits="userSpaceOnUse">
<stop stop-color="#FF5F1D"/>
<stop offset="1" stop-color="#9A3A0E"/>
</linearGradient>
<linearGradient id="paint5_linear_100_313" x1="361.8" y1="33.2998" x2="361.8" y2="517.8" gradientUnits="userSpaceOnUse">
<stop stop-color="#FF5F1D"/>
<stop offset="1" stop-color="#9A3A0E"/>
</linearGradient>
<linearGradient id="paint6_linear_100_313" x1="361.8" y1="33.2998" x2="361.8" y2="517.8" gradientUnits="userSpaceOnUse">
<stop stop-color="#FF5F1D"/>
<stop offset="1" stop-color="#9A3A0E"/>
</linearGradient>
<linearGradient id="paint7_linear_100_313" x1="361.8" y1="33.2998" x2="361.8" y2="517.8" gradientUnits="userSpaceOnUse">
<stop stop-color="#FF5F1D"/>
<stop offset="1" stop-color="#9A3A0E"/>
</linearGradient>
<linearGradient id="paint8_linear_100_313" x1="361.8" y1="33.2998" x2="361.8" y2="517.8" gradientUnits="userSpaceOnUse">
<stop stop-color="#FF5F1D"/>
<stop offset="1" stop-color="#9A3A0E"/>
</linearGradient>
<linearGradient id="paint9_linear_100_313" x1="361.8" y1="33.2998" x2="361.8" y2="517.8" gradientUnits="userSpaceOnUse">
<stop stop-color="#FF5F1D"/>
<stop offset="1" stop-color="#9A3A0E"/>
</linearGradient>
<linearGradient id="paint10_linear_100_313" x1="361.8" y1="33.2998" x2="361.8" y2="517.8" gradientUnits="userSpaceOnUse">
<stop stop-color="#FF5F1D"/>
<stop offset="1" stop-color="#9A3A0E"/>
</linearGradient>
<linearGradient id="paint11_linear_100_313" x1="361.8" y1="33.2998" x2="361.8" y2="517.8" gradientUnits="userSpaceOnUse">
<stop stop-color="#FF5F1D"/>
<stop offset="1" stop-color="#9A3A0E"/>
</linearGradient>
<linearGradient id="paint12_linear_100_313" x1="361.8" y1="33.2998" x2="361.8" y2="517.8" gradientUnits="userSpaceOnUse">
<stop stop-color="#FF5F1D"/>
<stop offset="1" stop-color="#9A3A0E"/>
</linearGradient>
<linearGradient id="paint13_linear_100_313" x1="361.8" y1="33.2998" x2="361.8" y2="517.8" gradientUnits="userSpaceOnUse">
<stop stop-color="#FF5F1D"/>
<stop offset="1" stop-color="#9A3A0E"/>
</linearGradient>
<linearGradient id="paint14_linear_100_313" x1="361.8" y1="33.2998" x2="361.8" y2="517.8" gradientUnits="userSpaceOnUse">
<stop stop-color="#FF5F1D"/>
<stop offset="1" stop-color="#9A3A0E"/>
</linearGradient>
<linearGradient id="paint15_linear_100_313" x1="361.8" y1="33.2998" x2="361.8" y2="517.8" gradientUnits="userSpaceOnUse">
<stop stop-color="#FF5F1D"/>
<stop offset="1" stop-color="#9A3A0E"/>
</linearGradient>
<linearGradient id="paint16_linear_100_313" x1="361.8" y1="33.2998" x2="361.8" y2="517.8" gradientUnits="userSpaceOnUse">
<stop stop-color="#FF5F1D"/>
<stop offset="1" stop-color="#9A3A0E"/>
</linearGradient>
<linearGradient id="paint17_linear_100_313" x1="361.8" y1="33.2998" x2="361.8" y2="517.8" gradientUnits="userSpaceOnUse">
<stop stop-color="#FF5F1D"/>
<stop offset="1" stop-color="#9A3A0E"/>
</linearGradient>
<linearGradient id="paint18_linear_100_313" x1="361.8" y1="33.2998" x2="361.8" y2="517.8" gradientUnits="userSpaceOnUse">
<stop stop-color="#FF5F1D"/>
<stop offset="1" stop-color="#9A3A0E"/>
</linearGradient>
<linearGradient id="paint19_linear_100_313" x1="361.8" y1="33.2998" x2="361.8" y2="517.8" gradientUnits="userSpaceOnUse">
<stop stop-color="#FF5F1D"/>
<stop offset="1" stop-color="#9A3A0E"/>
</linearGradient>
<linearGradient id="paint20_linear_100_313" x1="361.8" y1="33.2998" x2="361.8" y2="517.8" gradientUnits="userSpaceOnUse">
<stop stop-color="#FF5F1D"/>
<stop offset="1" stop-color="#9A3A0E"/>
</linearGradient>
<linearGradient id="paint21_linear_100_313" x1="361.8" y1="33.2998" x2="361.8" y2="517.8" gradientUnits="userSpaceOnUse">
<stop stop-color="#FF5F1D"/>
<stop offset="1" stop-color="#9A3A0E"/>
</linearGradient>
<linearGradient id="paint22_linear_100_313" x1="361.8" y1="33.2998" x2="361.8" y2="517.8" gradientUnits="userSpaceOnUse">
<stop stop-color="#FF5F1D"/>
<stop offset="1" stop-color="#9A3A0E"/>
</linearGradient>
<linearGradient id="paint23_linear_100_313" x1="361.8" y1="33.2998" x2="361.8" y2="517.8" gradientUnits="userSpaceOnUse">
<stop stop-color="#FF5F1D"/>
<stop offset="1" stop-color="#9A3A0E"/>
</linearGradient>
<linearGradient id="paint24_linear_100_313" x1="361.8" y1="33.2998" x2="361.8" y2="517.8" gradientUnits="userSpaceOnUse">
<stop stop-color="#FF5F1D"/>
<stop offset="1" stop-color="#9A3A0E"/>
</linearGradient>
<linearGradient id="paint25_linear_100_313" x1="361.8" y1="33.2998" x2="361.8" y2="517.8" gradientUnits="userSpaceOnUse">
<stop stop-color="#FF5F1D"/>
<stop offset="1" stop-color="#9A3A0E"/>
</linearGradient>
<linearGradient id="paint26_linear_100_313" x1="361.8" y1="33.2998" x2="361.8" y2="517.8" gradientUnits="userSpaceOnUse">
<stop stop-color="#FF5F1D"/>
<stop offset="1" stop-color="#9A3A0E"/>
</linearGradient>
<linearGradient id="paint27_linear_100_313" x1="361.8" y1="33.2998" x2="361.8" y2="517.8" gradientUnits="userSpaceOnUse">
<stop stop-color="#FF5F1D"/>
<stop offset="1" stop-color="#9A3A0E"/>
</linearGradient>
<linearGradient id="paint28_linear_100_313" x1="361.8" y1="33.2998" x2="361.8" y2="517.8" gradientUnits="userSpaceOnUse">
<stop stop-color="#FF5F1D"/>
<stop offset="1" stop-color="#9A3A0E"/>
</linearGradient>
<linearGradient id="paint29_linear_100_313" x1="361.8" y1="33.2998" x2="361.8" y2="517.8" gradientUnits="userSpaceOnUse">
<stop stop-color="#FF5F1D"/>
<stop offset="1" stop-color="#9A3A0E"/>
</linearGradient>
<linearGradient id="paint30_linear_100_313" x1="361.8" y1="33.2998" x2="361.8" y2="517.8" gradientUnits="userSpaceOnUse">
<stop stop-color="#FF5F1D"/>
<stop offset="1" stop-color="#9A3A0E"/>
</linearGradient>
<linearGradient id="paint31_linear_100_313" x1="361.8" y1="33.2998" x2="361.8" y2="517.8" gradientUnits="userSpaceOnUse">
<stop stop-color="#FF5F1D"/>
<stop offset="1" stop-color="#9A3A0E"/>
</linearGradient>
<linearGradient id="paint32_linear_100_313" x1="361.8" y1="33.2998" x2="361.8" y2="517.8" gradientUnits="userSpaceOnUse">
<stop stop-color="#FF5F1D"/>
<stop offset="1" stop-color="#9A3A0E"/>
</linearGradient>
<linearGradient id="paint33_linear_100_313" x1="361.8" y1="33.2998" x2="361.8" y2="517.8" gradientUnits="userSpaceOnUse">
<stop stop-color="#FF5F1D"/>
<stop offset="1" stop-color="#9A3A0E"/>
</linearGradient>
<linearGradient id="paint34_linear_100_313" x1="361.8" y1="33.2998" x2="361.8" y2="517.8" gradientUnits="userSpaceOnUse">
<stop stop-color="#FF5F1D"/>
<stop offset="1" stop-color="#9A3A0E"/>
</linearGradient>
<linearGradient id="paint35_linear_100_313" x1="361.8" y1="33.2998" x2="361.8" y2="517.8" gradientUnits="userSpaceOnUse">
<stop stop-color="#FF5F1D"/>
<stop offset="1" stop-color="#9A3A0E"/>
</linearGradient>
</defs>
</svg>
